<svg id="Layer_1" data-name="Layer 1" xmlns="http://www.w3.org/2000/svg" viewBox="0 0 512 512"><defs><style>.cls-1{fill-rule:evenodd;}</style></defs><path class="cls-1" d="M289,25.84l82.61,47.7,115.84,66.88v56.23l-60.7-35.05-87-50.38v63.35l67.32,38.86,19.64,11.34,60.7,35V407.93l-61.2,35.33V282L289,202.73V25.84ZM85.27,443.26l-61.2-35.33V140.42L139.91,73.54l82.61-47.7V202.73L85.27,282V443.26Zm86.46-332v63.35l-87,50.2V161.6l87-50.38ZM96,450.67l44,25.39L157.18,486V308.41l98.42,54.32L345,309.06V257l-89.11,53.61-98.67-58L96,287.68v163Zm319.57-1.25-44,25.39-17.22,9.94V251.33l61.19,35.11v163Z"/></svg>